<?xml version="1.0" encoding="UTF-8" standalone="no"?>
<!-- Created with Inkscape (http://www.inkscape.org/) -->

<svg
   xmlns:dc="http://purl.org/dc/elements/1.1/"
   xmlns:cc="http://creativecommons.org/ns#"
   xmlns:rdf="http://www.w3.org/1999/02/22-rdf-syntax-ns#"
   xmlns:svg="http://www.w3.org/2000/svg"
   xmlns="http://www.w3.org/2000/svg"
   xmlns:sodipodi="http://sodipodi.sourceforge.net/DTD/sodipodi-0.dtd"
   xmlns:inkscape="http://www.inkscape.org/namespaces/inkscape"
   version="1.1"
   id="svg3437"
   xml:space="preserve"
   width="800"
   height="800"
   viewBox="0 0 800 800"
   sodipodi:docname="sunbeams-red-pink-svg.svg"
   inkscape:version="0.92.4 (5da689c313, 2019-01-14)"><metadata
     id="metadata3443"><rdf:RDF><cc:Work
         rdf:about=""><dc:format>image/svg+xml</dc:format><dc:type
           rdf:resource="http://purl.org/dc/dcmitype/StillImage" /><dc:title></dc:title></cc:Work></rdf:RDF></metadata><defs
     id="defs3441"><clipPath
       clipPathUnits="userSpaceOnUse"
       id="clipPath3453"><path
         d="M 0,600 H 600 V 0 H 0 Z"
         id="path3451"
         inkscape:connector-curvature="0" /></clipPath></defs><sodipodi:namedview
     pagecolor="#ffffff"
     bordercolor="#666666"
     borderopacity="1"
     objecttolerance="10"
     gridtolerance="10"
     guidetolerance="10"
     inkscape:pageopacity="0"
     inkscape:pageshadow="2"
     inkscape:window-width="1920"
     inkscape:window-height="1018"
     id="namedview3439"
     showgrid="false"
     inkscape:zoom="0.7075"
     inkscape:cx="494.91525"
     inkscape:cy="294.91525"
     inkscape:window-x="-8"
     inkscape:window-y="-8"
     inkscape:window-maximized="1"
     inkscape:current-layer="g3445" /><g
     id="g3445"
     inkscape:groupmode="layer"
     inkscape:label="radial-16-publicdomainvectors.org [Converted]"
     transform="matrix(1.3333333,0,0,-1.3333333,0,800)"><g
       id="g3447"><g
         id="g3449"
         clip-path="url(#clipPath3453)"><path
           d="M 600,57.61 C 514.776,73.873 434.9,110.319 398.782,182.963 442.521,121.447 519.338,97.191 600,92.399 Z"
           style="fill:#ed1e79;fill-opacity:1;fill-rule:nonzero;stroke:none"
           id="path3455"
           inkscape:connector-curvature="0" /><path
           d="M 600,102.209 C 521.278,104.198 446.131,125.341 400.799,183.545 452.107,135.493 525.364,125.274 600,133.828 Z"
           style="fill:#0074b4;fill-opacity:1;fill-rule:nonzero;stroke:none"
           id="path3457"
           inkscape:connector-curvature="0" /><path
           d="M 600,143.073 C 527.075,131.931 455.082,139.375 402.631,184.539 460.15,148.892 530.907,152.182 600,173.758 Z"
           style="fill:#ed1e79;fill-opacity:1;fill-rule:nonzero;stroke:none"
           id="path3459"
           inkscape:connector-curvature="0" /><path
           d="M 600,183.058 C 532.46,158.841 462.685,152.807 404.204,185.892 467.583,162.132 536.452,179.801 600,215.28 Z"
           style="fill:#0074b4;fill-opacity:1;fill-rule:nonzero;stroke:none"
           id="path3461"
           inkscape:connector-curvature="0" /><path
           d="M 600,225.482 C 537.99,186.952 469.902,166.153 405.449,187.537 475.643,175.964 542.88,211.192 600,263.313 Z"
           style="fill:#ed1e79;fill-opacity:1;fill-rule:nonzero;stroke:none"
           id="path3463"
           inkscape:connector-curvature="0" /><path
           d="M 600,276.009 C 544.708,219.773 478.152,180.211 406.328,189.403 487.193,191.884 552.402,253.975 600,329.569 Z"
           style="fill:#0074b4;fill-opacity:1;fill-rule:nonzero;stroke:none"
           id="path3465"
           inkscape:connector-curvature="0" /><path
           d="M 600,350.187 C 555.55,267.615 491.295,196.896 406.808,191.404 522.3,217.646 579.306,364.871 600,486.795 Z"
           style="fill:#ed1e79;fill-opacity:1;fill-rule:nonzero;stroke:none"
           id="path3467"
           inkscape:connector-curvature="0" /><path
           d="m 592.731,600 c -0.095,-15.595 -0.447,-31.33 -1.174,-47.242 -5.865,-128.726 -51.973,-324.403 -184.669,-359.294 124.616,54.998 140.657,254.609 125.551,382.307 -0.952,8.139 -1.998,16.212 -3.122,24.229 z"
           style="fill:#0074b4;fill-opacity:1;fill-rule:nonzero;stroke:none"
           id="path3469"
           inkscape:connector-curvature="0" /><path
           d="m 512.146,600 c 0.934,-5.229 1.835,-10.486 2.699,-15.771 20.809,-127.422 14.885,-329.444 -108.277,-388.727 111.365,77.468 86.923,276.996 45.802,399.021 -0.616,1.83 -1.235,3.656 -1.859,5.477 z"
           style="fill:#ed1e79;fill-opacity:1;fill-rule:nonzero;stroke:none"
           id="path3471"
           inkscape:connector-curvature="0" /><path
           d="m 433.116,600 c 0.107,-0.276 0.214,-0.551 0.321,-0.827 46.709,-120.582 81.474,-320.302 -27.568,-401.727 93.995,96.958 29.779,287.906 -35.61,398.92 -0.714,1.215 -1.43,2.426 -2.148,3.634 z"
           style="fill:#0074b4;fill-opacity:1;fill-rule:nonzero;stroke:none"
           id="path3473"
           inkscape:connector-curvature="0" /><path
           d="m 348.841,600 c 0.649,-0.991 1.299,-1.985 1.946,-2.98 70.571,-108.437 144.762,-297.251 54.031,-397.789 73.015,112.801 -28.373,286.85 -115.249,382.035 -5.788,6.349 -11.596,12.59 -17.42,18.734 z"
           style="fill:#ed1e79;fill-opacity:1;fill-rule:nonzero;stroke:none"
           id="path3475"
           inkscape:connector-curvature="0" /><path
           d="m 247.83,600 c 7.531,-7.22 15.05,-14.581 22.552,-22.102 91.439,-91.568 201.846,-261.269 133.061,-377.104 48.944,124.392 -85.223,273.89 -189.747,349.083 -25.004,18 -50.076,34.494 -75.102,50.123 z"
           style="fill:#0074b4;fill-opacity:1;fill-rule:nonzero;stroke:none"
           id="path3477"
           inkscape:connector-curvature="0" /><path
           d="m 99.044,600 c 32.12,-17.652 64.383,-36.323 96.56,-57.374 C 303.828,471.9 445.49,328.728 401.781,202.066 424.179,333.141 263.463,451.513 145.842,503.509 96.946,525.126 48.315,541.86 0.274,558.075 V 600 Z"
           style="fill:#ed1e79;fill-opacity:1;fill-rule:nonzero;stroke:none"
           id="path3479"
           inkscape:connector-curvature="0" /><path
           d="M 0.274,535.395 C 42.985,522.842 86.148,509.61 129.611,492.674 249.888,445.833 416.407,335.223 399.881,202.979 394.389,335.164 214.507,417.542 88.887,444.088 59.029,450.412 29.517,455.133 0.274,459.146 Z"
           style="fill:#0074b4;fill-opacity:1;fill-rule:nonzero;stroke:none"
           id="path3481"
           inkscape:connector-curvature="0" /><path
           d="m 0.274,439.855 c 24.747,-2.488 49.707,-5.552 74.94,-9.737 C 202.348,409.174 386.306,335.561 397.812,203.463 364.459,330.855 173.371,374.038 45.284,374.084 30.13,374.096 15.137,373.732 0.274,373.101 Z"
           style="fill:#ed1e79;fill-opacity:1;fill-rule:nonzero;stroke:none"
           id="path3483"
           inkscape:connector-curvature="0" /><path
           d="m 0.274,355.425 c 11.407,0.892 22.899,1.62 34.493,2.137 128.439,5.729 321.586,-28.079 360.908,-154.084 C 335.801,320.183 141.977,322.79 16.959,296.43 11.365,295.252 5.804,294.027 0.274,292.762 Z"
           style="fill:#0074b4;fill-opacity:1;fill-rule:nonzero;stroke:none"
           id="path3485"
           inkscape:connector-curvature="0" /><path
           d="m 0.274,275.47 c 3.253,0.876 6.518,1.736 9.795,2.581 124.165,32.08 317.993,38.986 383.506,-75.035 -83.819,100.378 -271.794,62.922 -388.357,11.384 -1.652,-0.73 -3.3,-1.463 -4.944,-2.201 z"
           style="fill:#ed1e79;fill-opacity:1;fill-rule:nonzero;stroke:none"
           id="path3487"
           inkscape:connector-curvature="0" /><path
           d="m 0.274,193.958 c 0.666,0.331 1.332,0.663 1.999,0.994 114.541,56.96 300.586,103.679 389.342,7.143 C 287.767,281.171 113.755,205.88 10.683,131.512 7.187,128.991 3.717,126.46 0.274,123.916 Z"
           style="fill:#0074b4;fill-opacity:1;fill-rule:nonzero;stroke:none"
           id="path3489"
           inkscape:connector-curvature="0" /><path
           d="m 0.274,102.555 c 3.821,3.106 7.676,6.2 11.566,9.28 99.977,79.238 270.157,163.093 378.049,88.924 C 270.975,254.406 118.455,145.234 33.247,51.359 21.854,38.808 10.893,26.194 0.274,13.539 Z"
           style="fill:#ed1e79;fill-opacity:1;fill-rule:nonzero;stroke:none"
           id="path3491"
           inkscape:connector-curvature="0" /><path
           d="M 12.628,0 C 20.98,10.81 29.579,21.588 38.48,32.32 119.658,130.275 266.7,247.043 388.487,199.069 269.083,222.743 152.627,104.588 85.81,0 Z"
           style="fill:#0074b4;fill-opacity:1;fill-rule:nonzero;stroke:none"
           id="path3493"
           inkscape:connector-curvature="0" /><path
           d="M 103.963,0 C 167.554,103.492 272.871,214.078 387.474,197.104 286.826,193.795 209.345,98.37 160.979,0 Z"
           style="fill:#ed1e79;fill-opacity:1;fill-rule:nonzero;stroke:none"
           id="path3495"
           inkscape:connector-curvature="0" /><path
           d="M 175.625,0 C 219.907,96.046 290.611,187.042 386.896,194.962 303.564,172.671 251.243,89.728 221.268,0 Z"
           style="fill:#0074b4;fill-opacity:1;fill-rule:nonzero;stroke:none"
           id="path3497"
           inkscape:connector-curvature="0" /><path
           d="m 233.448,0 c 26.39,87.274 74.031,167.344 153.334,192.739 C 319.495,157.051 285.664,81.507 271.511,0 Z"
           style="fill:#ed1e79;fill-opacity:1;fill-rule:nonzero;stroke:none"
           id="path3499"
           inkscape:connector-curvature="0" /><path
           d="M 282.096,0 C 293.275,79.222 323.567,152.717 387.14,190.541 334.648,145.22 315.924,74.347 315.471,0 Z"
           style="fill:#0074b4;fill-opacity:1;fill-rule:nonzero;stroke:none"
           id="path3501"
           inkscape:connector-curvature="0" /><path
           d="m 325.117,0 c -2.098,72.348 13.705,141.688 62.821,188.47 C 349.062,135.976 343.901,68.214 356.072,0 Z"
           style="fill:#ed1e79;fill-opacity:1;fill-rule:nonzero;stroke:none"
           id="path3503"
           inkscape:connector-curvature="0" /><path
           d="M 365.456,0 C 350.897,66.471 353.372,133.055 389.149,186.62 363.101,128.216 371.437,62.666 396.332,0 Z"
           style="fill:#0074b4;fill-opacity:1;fill-rule:nonzero;stroke:none"
           id="path3505"
           inkscape:connector-curvature="0" /><path
           d="M 406.122,0 C 378.692,61.088 367.582,125.714 390.708,185.071 377.327,120.823 400.723,57.018 439.914,0 Z"
           style="fill:#ed1e79;fill-opacity:1;fill-rule:nonzero;stroke:none"
           id="path3507"
           inkscape:connector-curvature="0" /><path
           d="M 451.258,0 C 408.91,55.412 382.109,118.468 392.538,183.892 392.904,111.973 436.334,49.927 494.084,0 Z"
           style="fill:#0074b4;fill-opacity:1;fill-rule:nonzero;stroke:none"
           id="path3509"
           inkscape:connector-curvature="0" /><path
           d="M 509.744,0 C 447.203,47.792 398.389,109.083 394.559,183.133 413.429,95.546 494.747,36.993 583.034,0 Z"
           style="fill:#ed1e79;fill-opacity:1;fill-rule:nonzero;stroke:none"
           id="path3511"
           inkscape:connector-curvature="0" /><path
           d="M 600,6.116 C 507.567,38.733 420.148,93.906 396.672,182.82 430.477,106.418 512.633,66.131 600,46.61 Z"
           style="fill:#0074b4;fill-opacity:1;fill-rule:nonzero;stroke:none"
           id="path3513"
           inkscape:connector-curvature="0" /></g></g></g></svg>